# MagicaVoxel @ Ephtracy

# material
mtllib USMG.mtl
usemtl palette

# normals
vn -1 0 0
vn 1 0 0
vn 0 0 1
vn 0 0 -1
vn 0 -1 0
vn 0 1 0

# texcoords
vt 0.904297 0.5
vt 0.982422 0.5
vt 0.990234 0.5

# verts
v -6 4 -0
v -6 4 -1
v -6 5 -0
v -6 5 -1
v -4 0 -0
v -4 0 -1
v -4 2 -0
v -4 2 -1
v -3 2 -0
v -3 2 -1
v -3 3 -0
v -3 3 -1
v -2 0 -0
v -2 0 -1
v -2 2 -0
v -2 2 -1
v -2 3 -0
v -2 3 -1
v -2 4 -0
v -2 4 -1
v 0 0 -0
v 0 0 -1
v 0 1 -0
v 0 1 -1
v 0 3 -0
v 0 3 -1
v 2 0 -0
v 2 0 -1
v 2 2 -0
v 2 2 -1
v 2 3 -0
v 2 3 -1
v 2 4 -0
v 2 4 -1
v 2 5 -0
v 2 5 -1
v 2 6 -0
v 2 6 -1
v -3 0 -0
v -3 0 -1
v -3 2 -0
v -3 2 -1
v -1 0 -0
v -1 0 -1
v -1 4 -0
v -1 4 -1
v 1 0 -0
v 1 0 -1
v 1 1 -0
v 1 1 -1
v 1 2 -0
v 1 2 -1
v 3 1 -0
v 3 1 -1
v 3 6 -0
v 3 6 -1
v 4 0 -0
v 4 0 -1
v 4 1 -0
v 4 1 -1
v -6 4 -0
v -6 5 -0
v -4 0 -0
v -4 2 -0
v -3 0 -0
v -3 2 -0
v -3 3 -0
v -2 0 -0
v -2 2 -0
v -2 3 -0
v -2 4 -0
v -1 0 -0
v -1 4 -0
v -1 5 -0
v 0 0 -0
v 0 1 -0
v 0 3 -0
v 0 4 -0
v 0 5 -0
v 1 0 -0
v 1 1 -0
v 1 2 -0
v 2 0 -0
v 2 2 -0
v 2 3 -0
v 2 4 -0
v 2 5 -0
v 2 6 -0
v 3 0 -0
v 3 1 -0
v 3 6 -0
v 4 0 -0
v 4 1 -0
v -6 4 -1
v -6 5 -1
v -4 0 -1
v -4 2 -1
v -3 0 -1
v -3 2 -1
v -3 3 -1
v -2 0 -1
v -2 2 -1
v -2 3 -1
v -2 4 -1
v -1 0 -1
v -1 4 -1
v -1 5 -1
v 0 0 -1
v 0 1 -1
v 0 3 -1
v 0 4 -1
v 0 5 -1
v 1 0 -1
v 1 1 -1
v 1 2 -1
v 2 0 -1
v 2 2 -1
v 2 3 -1
v 2 4 -1
v 2 5 -1
v 2 6 -1
v 3 0 -1
v 3 1 -1
v 3 6 -1
v 4 0 -1
v 4 1 -1
v -4 0 -0
v -3 0 -0
v -2 0 -0
v -1 0 -0
v 0 0 -0
v 1 0 -0
v 2 0 -0
v 3 0 -0
v 4 0 -0
v -4 0 -1
v -3 0 -1
v -2 0 -1
v -1 0 -1
v 0 0 -1
v 1 0 -1
v 2 0 -1
v 3 0 -1
v 4 0 -1
v -3 2 -0
v -2 2 -0
v 1 2 -0
v 2 2 -0
v -3 2 -1
v -2 2 -1
v 1 2 -1
v 2 2 -1
v -6 4 -0
v -2 4 -0
v -1 4 -0
v 0 4 -0
v 2 4 -0
v -6 4 -1
v -2 4 -1
v -1 4 -1
v 0 4 -1
v 2 4 -1
v 3 1 -0
v 4 1 -0
v 3 1 -1
v 4 1 -1
v -4 2 -0
v -3 2 -0
v -4 2 -1
v -3 2 -1
v -3 3 -0
v -2 3 -0
v 0 3 -0
v 2 3 -0
v -3 3 -1
v -2 3 -1
v 0 3 -1
v 2 3 -1
v -6 5 -0
v -1 5 -0
v 0 5 -0
v 2 5 -0
v -6 5 -1
v -1 5 -1
v 0 5 -1
v 2 5 -1
v 2 6 -0
v 3 6 -0
v 2 6 -1
v 3 6 -1

# faces
f 3/3/1 2/3/1 1/3/1
f 4/3/1 2/3/1 3/3/1
f 7/3/1 6/3/1 5/3/1
f 8/3/1 6/3/1 7/3/1
f 11/3/1 10/3/1 9/3/1
f 12/3/1 10/3/1 11/3/1
f 15/3/1 14/3/1 13/3/1
f 16/3/1 14/3/1 15/3/1
f 19/3/1 18/3/1 17/3/1
f 20/3/1 18/3/1 19/3/1
f 23/2/1 22/2/1 21/2/1
f 24/2/1 22/2/1 23/2/1
f 25/1/1 24/1/1 23/1/1
f 26/1/1 24/1/1 25/1/1
f 29/1/1 28/1/1 27/1/1
f 30/1/1 28/1/1 29/1/1
f 33/1/1 32/1/1 31/1/1
f 34/1/1 32/1/1 33/1/1
f 37/1/1 36/1/1 35/1/1
f 38/1/1 36/1/1 37/1/1
f 39/3/2 40/3/2 41/3/2
f 41/3/2 40/3/2 42/3/2
f 43/3/2 44/3/2 45/3/2
f 45/3/2 44/3/2 46/3/2
f 47/2/2 48/2/2 49/2/2
f 49/2/2 48/2/2 50/2/2
f 49/1/2 50/1/2 51/1/2
f 51/1/2 50/1/2 52/1/2
f 53/1/2 54/1/2 55/1/2
f 55/1/2 54/1/2 56/1/2
f 57/2/2 58/2/2 59/2/2
f 59/2/2 58/2/2 60/2/2
f 65/3/3 64/3/3 63/3/3
f 66/3/3 64/3/3 65/3/3
f 69/3/3 67/3/3 66/3/3
f 70/3/3 67/3/3 69/3/3
f 71/3/3 62/3/3 61/3/3
f 72/3/3 70/3/3 69/3/3
f 72/3/3 71/3/3 70/3/3
f 72/3/3 69/3/3 68/3/3
f 73/3/3 62/3/3 71/3/3
f 73/3/3 71/3/3 72/3/3
f 74/3/3 62/3/3 73/3/3
f 78/2/3 74/2/3 73/2/3
f 79/2/3 74/2/3 78/2/3
f 80/2/3 76/2/3 75/2/3
f 81/1/3 77/1/3 76/1/3
f 81/2/3 76/2/3 80/2/3
f 82/1/3 77/1/3 81/1/3
f 84/1/3 77/1/3 82/1/3
f 85/1/3 77/1/3 84/1/3
f 86/1/3 79/1/3 78/1/3
f 87/1/3 79/1/3 86/1/3
f 89/1/3 87/1/3 86/1/3
f 89/1/3 88/1/3 87/1/3
f 89/1/3 86/1/3 85/1/3
f 89/1/3 84/1/3 83/1/3
f 89/1/3 85/1/3 84/1/3
f 90/1/3 88/1/3 89/1/3
f 91/1/3 88/1/3 90/1/3
f 92/2/3 90/2/3 89/2/3
f 93/2/3 90/2/3 92/2/3
f 96/3/4 97/3/4 98/3/4
f 98/3/4 97/3/4 99/3/4
f 99/3/4 100/3/4 102/3/4
f 102/3/4 100/3/4 103/3/4
f 94/3/4 95/3/4 104/3/4
f 102/3/4 103/3/4 105/3/4
f 103/3/4 104/3/4 105/3/4
f 101/3/4 102/3/4 105/3/4
f 104/3/4 95/3/4 106/3/4
f 105/3/4 104/3/4 106/3/4
f 106/3/4 95/3/4 107/3/4
f 106/2/4 107/2/4 111/2/4
f 111/2/4 107/2/4 112/2/4
f 108/2/4 109/2/4 113/2/4
f 109/1/4 110/1/4 114/1/4
f 113/2/4 109/2/4 114/2/4
f 114/1/4 110/1/4 115/1/4
f 115/1/4 110/1/4 117/1/4
f 117/1/4 110/1/4 118/1/4
f 111/1/4 112/1/4 119/1/4
f 119/1/4 112/1/4 120/1/4
f 119/1/4 120/1/4 122/1/4
f 120/1/4 121/1/4 122/1/4
f 118/1/4 119/1/4 122/1/4
f 116/1/4 117/1/4 122/1/4
f 117/1/4 118/1/4 122/1/4
f 122/1/4 121/1/4 123/1/4
f 123/1/4 121/1/4 124/1/4
f 122/2/4 123/2/4 125/2/4
f 125/2/4 123/2/4 126/2/4
f 136/3/5 128/3/5 127/3/5
f 137/3/5 128/3/5 136/3/5
f 138/3/5 130/3/5 129/3/5
f 139/3/5 130/3/5 138/3/5
f 140/2/5 132/2/5 131/2/5
f 141/2/5 132/2/5 140/2/5
f 142/1/5 134/1/5 133/1/5
f 143/2/5 135/2/5 134/2/5
f 143/1/5 134/1/5 142/1/5
f 144/2/5 135/2/5 143/2/5
f 149/3/5 146/3/5 145/3/5
f 150/3/5 146/3/5 149/3/5
f 151/1/5 148/1/5 147/1/5
f 152/1/5 148/1/5 151/1/5
f 158/3/5 154/3/5 153/3/5
f 159/3/5 154/3/5 158/3/5
f 160/2/5 156/2/5 155/2/5
f 161/1/5 157/1/5 156/1/5
f 161/2/5 156/2/5 160/2/5
f 162/1/5 157/1/5 161/1/5
f 163/2/6 164/2/6 165/2/6
f 165/2/6 164/2/6 166/2/6
f 167/3/6 168/3/6 169/3/6
f 169/3/6 168/3/6 170/3/6
f 171/3/6 172/3/6 175/3/6
f 175/3/6 172/3/6 176/3/6
f 173/1/6 174/1/6 177/1/6
f 177/1/6 174/1/6 178/1/6
f 179/3/6 180/3/6 183/3/6
f 180/2/6 181/2/6 184/2/6
f 183/3/6 180/3/6 184/3/6
f 181/1/6 182/1/6 185/1/6
f 184/2/6 181/2/6 185/2/6
f 185/1/6 182/1/6 186/1/6
f 187/1/6 188/1/6 189/1/6
f 189/1/6 188/1/6 190/1/6
