# MagicaVoxel @ Ephtracy

# material
mtllib GermanMG.mtl
usemtl palette

# normals
vn -1 0 0
vn 1 0 0
vn 0 0 1
vn 0 0 -1
vn 0 -1 0
vn 0 1 0

# texcoords
vt 0.853516 0.5
vt 0.990234 0.5

# verts
v -6 4 -0
v -6 4 -1
v -6 5 -0
v -6 5 -1
v -4 0 -0
v -4 0 -1
v -4 2 -0
v -4 2 -1
v -3 2 -0
v -3 2 -1
v -3 3 -0
v -3 3 -1
v -2 0 -0
v -2 0 -1
v -2 2 -0
v -2 2 -1
v -2 3 -0
v -2 3 -1
v -2 4 -0
v -2 4 -1
v 0 0 -0
v 0 0 -1
v 0 1 -0
v 0 1 -1
v 0 3 -0
v 0 3 -1
v 2 0 -0
v 2 0 -1
v 2 2 -0
v 2 2 -1
v 2 3 -0
v 2 3 -1
v 2 4 -0
v 2 4 -1
v 2 5 -0
v 2 5 -1
v 2 6 -0
v 2 6 -1
v -3 0 -0
v -3 0 -1
v -3 2 -0
v -3 2 -1
v -1 0 -0
v -1 0 -1
v -1 4 -0
v -1 4 -1
v 1 0 -0
v 1 0 -1
v 1 1 -0
v 1 1 -1
v 1 2 -0
v 1 2 -1
v 3 1 -0
v 3 1 -1
v 3 6 -0
v 3 6 -1
v 4 0 -0
v 4 0 -1
v 4 1 -0
v 4 1 -1
v -6 4 -0
v -6 5 -0
v -4 0 -0
v -4 2 -0
v -3 0 -0
v -3 2 -0
v -3 3 -0
v -2 0 -0
v -2 2 -0
v -2 3 -0
v -2 4 -0
v -1 0 -0
v -1 4 -0
v -1 5 -0
v 0 0 -0
v 0 1 -0
v 0 3 -0
v 0 4 -0
v 0 5 -0
v 1 0 -0
v 1 1 -0
v 1 2 -0
v 2 0 -0
v 2 2 -0
v 2 3 -0
v 2 4 -0
v 2 5 -0
v 2 6 -0
v 3 0 -0
v 3 1 -0
v 3 6 -0
v 4 0 -0
v 4 1 -0
v -6 4 -1
v -6 5 -1
v -4 0 -1
v -4 2 -1
v -3 0 -1
v -3 2 -1
v -3 3 -1
v -2 0 -1
v -2 2 -1
v -2 3 -1
v -2 4 -1
v -1 0 -1
v -1 4 -1
v -1 5 -1
v 0 0 -1
v 0 1 -1
v 0 3 -1
v 0 4 -1
v 0 5 -1
v 1 0 -1
v 1 1 -1
v 1 2 -1
v 2 0 -1
v 2 2 -1
v 2 3 -1
v 2 4 -1
v 2 5 -1
v 2 6 -1
v 3 0 -1
v 3 1 -1
v 3 6 -1
v 4 0 -1
v 4 1 -1
v -4 0 -0
v -3 0 -0
v -2 0 -0
v -1 0 -0
v 0 0 -0
v 1 0 -0
v 2 0 -0
v 3 0 -0
v 4 0 -0
v -4 0 -1
v -3 0 -1
v -2 0 -1
v -1 0 -1
v 0 0 -1
v 1 0 -1
v 2 0 -1
v 3 0 -1
v 4 0 -1
v -3 2 -0
v -2 2 -0
v 1 2 -0
v 2 2 -0
v -3 2 -1
v -2 2 -1
v 1 2 -1
v 2 2 -1
v -6 4 -0
v -2 4 -0
v -1 4 -0
v 0 4 -0
v 2 4 -0
v -6 4 -1
v -2 4 -1
v -1 4 -1
v 0 4 -1
v 2 4 -1
v 3 1 -0
v 4 1 -0
v 3 1 -1
v 4 1 -1
v -4 2 -0
v -3 2 -0
v -4 2 -1
v -3 2 -1
v -3 3 -0
v -2 3 -0
v 0 3 -0
v 2 3 -0
v -3 3 -1
v -2 3 -1
v 0 3 -1
v 2 3 -1
v -6 5 -0
v -1 5 -0
v 0 5 -0
v 2 5 -0
v -6 5 -1
v -1 5 -1
v 0 5 -1
v 2 5 -1
v 2 6 -0
v 3 6 -0
v 2 6 -1
v 3 6 -1

# faces
f 3/2/1 2/2/1 1/2/1
f 4/2/1 2/2/1 3/2/1
f 7/2/1 6/2/1 5/2/1
f 8/2/1 6/2/1 7/2/1
f 11/2/1 10/2/1 9/2/1
f 12/2/1 10/2/1 11/2/1
f 15/2/1 14/2/1 13/2/1
f 16/2/1 14/2/1 15/2/1
f 19/2/1 18/2/1 17/2/1
f 20/2/1 18/2/1 19/2/1
f 23/1/1 22/1/1 21/1/1
f 24/1/1 22/1/1 23/1/1
f 25/2/1 24/2/1 23/2/1
f 26/2/1 24/2/1 25/2/1
f 29/2/1 28/2/1 27/2/1
f 30/2/1 28/2/1 29/2/1
f 33/2/1 32/2/1 31/2/1
f 34/2/1 32/2/1 33/2/1
f 37/2/1 36/2/1 35/2/1
f 38/2/1 36/2/1 37/2/1
f 39/2/2 40/2/2 41/2/2
f 41/2/2 40/2/2 42/2/2
f 43/2/2 44/2/2 45/2/2
f 45/2/2 44/2/2 46/2/2
f 47/1/2 48/1/2 49/1/2
f 49/1/2 48/1/2 50/1/2
f 49/2/2 50/2/2 51/2/2
f 51/2/2 50/2/2 52/2/2
f 53/2/2 54/2/2 55/2/2
f 55/2/2 54/2/2 56/2/2
f 57/1/2 58/1/2 59/1/2
f 59/1/2 58/1/2 60/1/2
f 65/2/3 64/2/3 63/2/3
f 66/2/3 64/2/3 65/2/3
f 69/2/3 67/2/3 66/2/3
f 70/2/3 67/2/3 69/2/3
f 71/2/3 62/2/3 61/2/3
f 72/2/3 70/2/3 69/2/3
f 72/2/3 71/2/3 70/2/3
f 72/2/3 69/2/3 68/2/3
f 73/2/3 62/2/3 71/2/3
f 73/2/3 71/2/3 72/2/3
f 74/2/3 62/2/3 73/2/3
f 78/1/3 74/1/3 73/1/3
f 79/1/3 74/1/3 78/1/3
f 80/1/3 76/1/3 75/1/3
f 81/2/3 77/2/3 76/2/3
f 81/1/3 76/1/3 80/1/3
f 82/2/3 77/2/3 81/2/3
f 84/2/3 77/2/3 82/2/3
f 85/2/3 77/2/3 84/2/3
f 86/2/3 79/2/3 78/2/3
f 87/2/3 79/2/3 86/2/3
f 89/2/3 87/2/3 86/2/3
f 89/2/3 88/2/3 87/2/3
f 89/2/3 86/2/3 85/2/3
f 89/2/3 84/2/3 83/2/3
f 89/2/3 85/2/3 84/2/3
f 90/2/3 88/2/3 89/2/3
f 91/2/3 88/2/3 90/2/3
f 92/1/3 90/1/3 89/1/3
f 93/1/3 90/1/3 92/1/3
f 96/2/4 97/2/4 98/2/4
f 98/2/4 97/2/4 99/2/4
f 99/2/4 100/2/4 102/2/4
f 102/2/4 100/2/4 103/2/4
f 94/2/4 95/2/4 104/2/4
f 102/2/4 103/2/4 105/2/4
f 103/2/4 104/2/4 105/2/4
f 101/2/4 102/2/4 105/2/4
f 104/2/4 95/2/4 106/2/4
f 105/2/4 104/2/4 106/2/4
f 106/2/4 95/2/4 107/2/4
f 106/1/4 107/1/4 111/1/4
f 111/1/4 107/1/4 112/1/4
f 108/1/4 109/1/4 113/1/4
f 109/2/4 110/2/4 114/2/4
f 113/1/4 109/1/4 114/1/4
f 114/2/4 110/2/4 115/2/4
f 115/2/4 110/2/4 117/2/4
f 117/2/4 110/2/4 118/2/4
f 111/2/4 112/2/4 119/2/4
f 119/2/4 112/2/4 120/2/4
f 119/2/4 120/2/4 122/2/4
f 120/2/4 121/2/4 122/2/4
f 118/2/4 119/2/4 122/2/4
f 116/2/4 117/2/4 122/2/4
f 117/2/4 118/2/4 122/2/4
f 122/2/4 121/2/4 123/2/4
f 123/2/4 121/2/4 124/2/4
f 122/1/4 123/1/4 125/1/4
f 125/1/4 123/1/4 126/1/4
f 136/2/5 128/2/5 127/2/5
f 137/2/5 128/2/5 136/2/5
f 138/2/5 130/2/5 129/2/5
f 139/2/5 130/2/5 138/2/5
f 140/1/5 132/1/5 131/1/5
f 141/1/5 132/1/5 140/1/5
f 142/2/5 134/2/5 133/2/5
f 143/1/5 135/1/5 134/1/5
f 143/2/5 134/2/5 142/2/5
f 144/1/5 135/1/5 143/1/5
f 149/2/5 146/2/5 145/2/5
f 150/2/5 146/2/5 149/2/5
f 151/2/5 148/2/5 147/2/5
f 152/2/5 148/2/5 151/2/5
f 158/2/5 154/2/5 153/2/5
f 159/2/5 154/2/5 158/2/5
f 160/1/5 156/1/5 155/1/5
f 161/2/5 157/2/5 156/2/5
f 161/1/5 156/1/5 160/1/5
f 162/2/5 157/2/5 161/2/5
f 163/1/6 164/1/6 165/1/6
f 165/1/6 164/1/6 166/1/6
f 167/2/6 168/2/6 169/2/6
f 169/2/6 168/2/6 170/2/6
f 171/2/6 172/2/6 175/2/6
f 175/2/6 172/2/6 176/2/6
f 173/2/6 174/2/6 177/2/6
f 177/2/6 174/2/6 178/2/6
f 179/2/6 180/2/6 183/2/6
f 180/1/6 181/1/6 184/1/6
f 183/2/6 180/2/6 184/2/6
f 181/2/6 182/2/6 185/2/6
f 184/1/6 181/1/6 185/1/6
f 185/2/6 182/2/6 186/2/6
f 187/2/6 188/2/6 189/2/6
f 189/2/6 188/2/6 190/2/6
