# MagicaVoxel @ Ephtracy

# material
mtllib USSniper.mtl
usemtl palette

# normals
vn -1 0 0
vn 1 0 0
vn 0 0 1
vn 0 0 -1
vn 0 -1 0
vn 0 1 0

# texcoords
vt 0.904297 0.5
vt 0.990234 0.5

# verts
v -1 4 -0
v -1 4 -1
v -1 5 -0
v -1 5 -1
v 0 0 -0
v 0 0 -1
v 0 1 -0
v 0 1 -1
v 0 3 -0
v 0 3 -1
v 2 0 -0
v 2 0 -1
v 2 2 -0
v 2 2 -1
v 2 3 -0
v 2 3 -1
v 2 4 -0
v 2 4 -1
v 2 5 -0
v 2 5 -1
v 2 6 -0
v 2 6 -1
v 1 0 -0
v 1 0 -1
v 1 1 -0
v 1 1 -1
v 1 2 -0
v 1 2 -1
v 3 1 -0
v 3 1 -1
v 3 6 -0
v 3 6 -1
v 4 0 -0
v 4 0 -1
v 4 1 -0
v 4 1 -1
v -1 4 -0
v -1 5 -0
v 0 0 -0
v 0 1 -0
v 0 3 -0
v 0 4 -0
v 0 5 -0
v 1 0 -0
v 1 1 -0
v 1 2 -0
v 2 0 -0
v 2 2 -0
v 2 3 -0
v 2 4 -0
v 2 5 -0
v 2 6 -0
v 3 0 -0
v 3 1 -0
v 3 6 -0
v 4 0 -0
v 4 1 -0
v -1 4 -1
v -1 5 -1
v 0 0 -1
v 0 1 -1
v 0 3 -1
v 0 4 -1
v 0 5 -1
v 1 0 -1
v 1 1 -1
v 1 2 -1
v 2 0 -1
v 2 2 -1
v 2 3 -1
v 2 4 -1
v 2 5 -1
v 2 6 -1
v 3 0 -1
v 3 1 -1
v 3 6 -1
v 4 0 -1
v 4 1 -1
v 0 0 -0
v 1 0 -0
v 2 0 -0
v 3 0 -0
v 4 0 -0
v 0 0 -1
v 1 0 -1
v 2 0 -1
v 3 0 -1
v 4 0 -1
v 1 2 -0
v 2 2 -0
v 1 2 -1
v 2 2 -1
v -1 4 -0
v 0 4 -0
v 2 4 -0
v -1 4 -1
v 0 4 -1
v 2 4 -1
v 3 1 -0
v 4 1 -0
v 3 1 -1
v 4 1 -1
v 0 3 -0
v 2 3 -0
v 0 3 -1
v 2 3 -1
v -1 5 -0
v 0 5 -0
v 2 5 -0
v -1 5 -1
v 0 5 -1
v 2 5 -1
v 2 6 -0
v 3 6 -0
v 2 6 -1
v 3 6 -1

# faces
f 3/2/1 2/2/1 1/2/1
f 4/2/1 2/2/1 3/2/1
f 7/2/1 6/2/1 5/2/1
f 8/2/1 6/2/1 7/2/1
f 9/1/1 8/1/1 7/1/1
f 10/1/1 8/1/1 9/1/1
f 13/1/1 12/1/1 11/1/1
f 14/1/1 12/1/1 13/1/1
f 17/1/1 16/1/1 15/1/1
f 18/1/1 16/1/1 17/1/1
f 21/1/1 20/1/1 19/1/1
f 22/1/1 20/1/1 21/1/1
f 23/2/2 24/2/2 25/2/2
f 25/2/2 24/2/2 26/2/2
f 25/1/2 26/1/2 27/1/2
f 27/1/2 26/1/2 28/1/2
f 29/1/2 30/1/2 31/1/2
f 31/1/2 30/1/2 32/1/2
f 33/2/2 34/2/2 35/2/2
f 35/2/2 34/2/2 36/2/2
f 42/2/3 38/2/3 37/2/3
f 43/2/3 38/2/3 42/2/3
f 44/2/3 40/2/3 39/2/3
f 45/1/3 41/1/3 40/1/3
f 45/2/3 40/2/3 44/2/3
f 46/1/3 41/1/3 45/1/3
f 48/1/3 41/1/3 46/1/3
f 49/1/3 41/1/3 48/1/3
f 50/1/3 43/1/3 42/1/3
f 51/1/3 43/1/3 50/1/3
f 53/1/3 51/1/3 50/1/3
f 53/1/3 52/1/3 51/1/3
f 53/1/3 50/1/3 49/1/3
f 53/1/3 49/1/3 48/1/3
f 53/1/3 48/1/3 47/1/3
f 54/1/3 52/1/3 53/1/3
f 55/1/3 52/1/3 54/1/3
f 56/2/3 54/2/3 53/2/3
f 57/2/3 54/2/3 56/2/3
f 58/2/4 59/2/4 63/2/4
f 63/2/4 59/2/4 64/2/4
f 60/2/4 61/2/4 65/2/4
f 61/1/4 62/1/4 66/1/4
f 65/2/4 61/2/4 66/2/4
f 66/1/4 62/1/4 67/1/4
f 67/1/4 62/1/4 69/1/4
f 69/1/4 62/1/4 70/1/4
f 63/1/4 64/1/4 71/1/4
f 71/1/4 64/1/4 72/1/4
f 71/1/4 72/1/4 74/1/4
f 72/1/4 73/1/4 74/1/4
f 70/1/4 71/1/4 74/1/4
f 69/1/4 70/1/4 74/1/4
f 68/1/4 69/1/4 74/1/4
f 74/1/4 73/1/4 75/1/4
f 75/1/4 73/1/4 76/1/4
f 74/2/4 75/2/4 77/2/4
f 77/2/4 75/2/4 78/2/4
f 84/2/5 80/2/5 79/2/5
f 85/2/5 80/2/5 84/2/5
f 86/1/5 82/1/5 81/1/5
f 87/2/5 83/2/5 82/2/5
f 87/1/5 82/1/5 86/1/5
f 88/2/5 83/2/5 87/2/5
f 91/1/5 90/1/5 89/1/5
f 92/1/5 90/1/5 91/1/5
f 96/2/5 94/2/5 93/2/5
f 97/1/5 95/1/5 94/1/5
f 97/2/5 94/2/5 96/2/5
f 98/1/5 95/1/5 97/1/5
f 99/2/6 100/2/6 101/2/6
f 101/2/6 100/2/6 102/2/6
f 103/1/6 104/1/6 105/1/6
f 105/1/6 104/1/6 106/1/6
f 107/2/6 108/2/6 110/2/6
f 108/1/6 109/1/6 111/1/6
f 110/2/6 108/2/6 111/2/6
f 111/1/6 109/1/6 112/1/6
f 113/1/6 114/1/6 115/1/6
f 115/1/6 114/1/6 116/1/6
