# MagicaVoxel @ Ephtracy

# material
mtllib USInfantry.mtl
usemtl palette

# normals
vn -1 0 0
vn 1 0 0
vn 0 0 1
vn 0 0 -1
vn 0 -1 0
vn 0 1 0

# texcoords
vt 0.904297 0.5
vt 0.990234 0.5

# verts
v -1 0 2
v -1 0 1
v -1 0 -0
v -1 0 -1
v -1 1 2
v -1 1 1
v -1 1 -0
v -1 1 -1
v -1 3 1
v -1 3 -0
v -1 4 2
v -1 4 1
v -1 4 -0
v -1 4 -1
v -1 5 3
v -1 5 2
v -1 5 1
v -1 5 -0
v -1 5 -1
v -1 5 -2
v -1 6 3
v -1 6 2
v -1 6 1
v -1 6 -0
v -1 6 -1
v -1 6 -2
v -1 7 1
v -1 7 -0
v 0 0 2
v 0 0 1
v 0 0 -0
v 0 0 -1
v 0 1 2
v 0 1 1
v 0 1 -0
v 0 1 -1
v 0 3 1
v 0 3 -0
v 0 4 2
v 0 4 1
v 0 4 -0
v 0 4 -1
v 0 5 3
v 0 5 2
v 0 5 1
v 0 5 -0
v 0 5 -1
v 0 5 -2
v 0 6 3
v 0 6 2
v 0 6 1
v 0 6 -0
v 0 6 -1
v 0 6 -2
v 0 7 1
v 0 7 -0
v -1 5 3
v -1 6 3
v 0 5 3
v 0 6 3
v -1 0 2
v -1 1 2
v -1 4 2
v 0 0 2
v 0 1 2
v 0 4 2
v -1 4 1
v -1 5 1
v -1 6 1
v -1 7 1
v 0 4 1
v 0 5 1
v 0 6 1
v 0 7 1
v -1 0 -0
v -1 1 -0
v -1 3 -0
v 0 0 -0
v 0 1 -0
v 0 3 -0
v -1 0 1
v -1 1 1
v -1 3 1
v 0 0 1
v 0 1 1
v 0 3 1
v -1 4 -0
v -1 5 -0
v -1 6 -0
v -1 7 -0
v 0 4 -0
v 0 5 -0
v 0 6 -0
v 0 7 -0
v -1 0 -1
v -1 1 -1
v -1 4 -1
v 0 0 -1
v 0 1 -1
v 0 4 -1
v -1 5 -2
v -1 6 -2
v 0 5 -2
v 0 6 -2
v -1 0 2
v 0 0 2
v -1 0 1
v 0 0 1
v -1 0 -0
v 0 0 -0
v -1 0 -1
v 0 0 -1
v -1 3 1
v 0 3 1
v -1 3 -0
v 0 3 -0
v -1 5 3
v 0 5 3
v -1 5 2
v 0 5 2
v -1 5 1
v 0 5 1
v -1 5 -0
v 0 5 -0
v -1 5 -1
v 0 5 -1
v -1 5 -2
v 0 5 -2
v -1 4 2
v 0 4 2
v -1 4 1
v 0 4 1
v -1 4 -0
v 0 4 -0
v -1 4 -1
v 0 4 -1
v -1 6 3
v 0 6 3
v -1 6 2
v 0 6 2
v -1 6 1
v 0 6 1
v -1 6 -0
v 0 6 -0
v -1 6 -1
v 0 6 -1
v -1 6 -2
v 0 6 -2
v -1 7 1
v 0 7 1
v -1 7 -0
v 0 7 -0

# faces
f 5/2/1 2/2/1 1/2/1
f 6/2/1 2/2/1 5/2/1
f 7/2/1 4/2/1 3/2/1
f 8/2/1 4/2/1 7/2/1
f 9/1/1 6/1/1 5/1/1
f 10/1/1 8/1/1 7/1/1
f 11/1/1 9/1/1 5/1/1
f 11/1/1 10/1/1 9/1/1
f 12/1/1 10/1/1 11/1/1
f 13/1/1 8/1/1 10/1/1
f 13/1/1 10/1/1 12/1/1
f 14/1/1 8/1/1 13/1/1
f 17/1/1 13/1/1 12/1/1
f 18/1/1 13/1/1 17/1/1
f 21/2/1 16/2/1 15/2/1
f 22/1/1 19/1/1 18/1/1
f 22/2/1 16/2/1 21/2/1
f 22/1/1 18/1/1 17/1/1
f 22/1/1 17/1/1 16/1/1
f 23/1/1 19/1/1 22/1/1
f 24/1/1 19/1/1 23/1/1
f 25/2/1 20/2/1 19/2/1
f 25/1/1 19/1/1 24/1/1
f 26/2/1 20/2/1 25/2/1
f 27/1/1 24/1/1 23/1/1
f 28/1/1 24/1/1 27/1/1
f 29/2/2 30/2/2 33/2/2
f 33/2/2 30/2/2 34/2/2
f 31/2/2 32/2/2 35/2/2
f 35/2/2 32/2/2 36/2/2
f 33/1/2 34/1/2 37/1/2
f 35/1/2 36/1/2 38/1/2
f 33/1/2 37/1/2 39/1/2
f 37/1/2 38/1/2 39/1/2
f 39/1/2 38/1/2 40/1/2
f 38/1/2 36/1/2 41/1/2
f 40/1/2 38/1/2 41/1/2
f 41/1/2 36/1/2 42/1/2
f 40/1/2 41/1/2 45/1/2
f 45/1/2 41/1/2 46/1/2
f 43/2/2 44/2/2 49/2/2
f 46/1/2 47/1/2 50/1/2
f 49/2/2 44/2/2 50/2/2
f 45/1/2 46/1/2 50/1/2
f 44/1/2 45/1/2 50/1/2
f 50/1/2 47/1/2 51/1/2
f 51/1/2 47/1/2 52/1/2
f 47/2/2 48/2/2 53/2/2
f 52/1/2 47/1/2 53/1/2
f 53/2/2 48/2/2 54/2/2
f 51/1/2 52/1/2 55/1/2
f 55/1/2 52/1/2 56/1/2
f 59/2/3 58/2/3 57/2/3
f 60/2/3 58/2/3 59/2/3
f 64/2/3 62/2/3 61/2/3
f 65/1/3 63/1/3 62/1/3
f 65/2/3 62/2/3 64/2/3
f 66/1/3 63/1/3 65/1/3
f 71/1/3 68/1/3 67/1/3
f 72/1/3 68/1/3 71/1/3
f 73/1/3 70/1/3 69/1/3
f 74/1/3 70/1/3 73/1/3
f 78/2/3 76/2/3 75/2/3
f 79/1/3 77/1/3 76/1/3
f 79/2/3 76/2/3 78/2/3
f 80/1/3 77/1/3 79/1/3
f 81/2/4 82/2/4 84/2/4
f 82/1/4 83/1/4 85/1/4
f 84/2/4 82/2/4 85/2/4
f 85/1/4 83/1/4 86/1/4
f 87/1/4 88/1/4 91/1/4
f 91/1/4 88/1/4 92/1/4
f 89/1/4 90/1/4 93/1/4
f 93/1/4 90/1/4 94/1/4
f 95/2/4 96/2/4 98/2/4
f 96/1/4 97/1/4 99/1/4
f 98/2/4 96/2/4 99/2/4
f 99/1/4 97/1/4 100/1/4
f 101/2/4 102/2/4 103/2/4
f 103/2/4 102/2/4 104/2/4
f 107/2/5 106/2/5 105/2/5
f 108/2/5 106/2/5 107/2/5
f 111/2/5 110/2/5 109/2/5
f 112/2/5 110/2/5 111/2/5
f 115/1/5 114/1/5 113/1/5
f 116/1/5 114/1/5 115/1/5
f 119/2/5 118/2/5 117/2/5
f 120/2/5 118/2/5 119/2/5
f 121/1/5 120/1/5 119/1/5
f 122/1/5 120/1/5 121/1/5
f 125/1/5 124/1/5 123/1/5
f 126/1/5 124/1/5 125/1/5
f 127/2/5 126/2/5 125/2/5
f 128/2/5 126/2/5 127/2/5
f 129/1/6 130/1/6 131/1/6
f 131/1/6 130/1/6 132/1/6
f 133/1/6 134/1/6 135/1/6
f 135/1/6 134/1/6 136/1/6
f 137/2/6 138/2/6 139/2/6
f 139/2/6 138/2/6 140/2/6
f 139/1/6 140/1/6 141/1/6
f 141/1/6 140/1/6 142/1/6
f 143/1/6 144/1/6 145/1/6
f 145/1/6 144/1/6 146/1/6
f 145/2/6 146/2/6 147/2/6
f 147/2/6 146/2/6 148/2/6
f 149/1/6 150/1/6 151/1/6
f 151/1/6 150/1/6 152/1/6
