# MagicaVoxel @ Ephtracy

# material
mtllib GermanMortar.mtl
usemtl palette

# normals
vn -1 0 0
vn 1 0 0
vn 0 0 1
vn 0 0 -1
vn 0 -1 0
vn 0 1 0

# texcoords
vt 0.853516 0.5
vt 0.990234 0.5

# verts
v -4 0 -0
v -4 0 -1
v -4 2 -0
v -4 2 -1
v -3 2 -0
v -3 2 -1
v -3 7 -0
v -3 7 -1
v -2 0 -0
v -2 0 -1
v -2 2 -0
v -2 2 -1
v 0 0 -0
v 0 0 -1
v 0 1 -0
v 0 1 -1
v 0 3 -0
v 0 3 -1
v 2 0 -0
v 2 0 -1
v 2 2 -0
v 2 2 -1
v 2 3 -0
v 2 3 -1
v 2 4 -0
v 2 4 -1
v 2 5 -0
v 2 5 -1
v 2 6 -0
v 2 6 -1
v -3 0 -0
v -3 0 -1
v -3 2 -0
v -3 2 -1
v -2 5 -0
v -2 5 -1
v -2 7 -0
v -2 7 -1
v -1 0 -0
v -1 0 -1
v -1 4 -0
v -1 4 -1
v 1 0 -0
v 1 0 -1
v 1 1 -0
v 1 1 -1
v 1 2 -0
v 1 2 -1
v 3 1 -0
v 3 1 -1
v 3 6 -0
v 3 6 -1
v 4 0 -0
v 4 0 -1
v 4 1 -0
v 4 1 -1
v -4 0 -0
v -4 2 -0
v -3 0 -0
v -3 2 -0
v -3 7 -0
v -2 0 -0
v -2 2 -0
v -2 5 -0
v -2 7 -0
v -1 0 -0
v -1 4 -0
v -1 5 -0
v 0 0 -0
v 0 1 -0
v 0 3 -0
v 0 4 -0
v 0 5 -0
v 1 0 -0
v 1 1 -0
v 1 2 -0
v 2 0 -0
v 2 2 -0
v 2 3 -0
v 2 4 -0
v 2 5 -0
v 2 6 -0
v 3 0 -0
v 3 1 -0
v 3 6 -0
v 4 0 -0
v 4 1 -0
v -4 0 -1
v -4 2 -1
v -3 0 -1
v -3 2 -1
v -3 7 -1
v -2 0 -1
v -2 2 -1
v -2 5 -1
v -2 7 -1
v -1 0 -1
v -1 4 -1
v -1 5 -1
v 0 0 -1
v 0 1 -1
v 0 3 -1
v 0 4 -1
v 0 5 -1
v 1 0 -1
v 1 1 -1
v 1 2 -1
v 2 0 -1
v 2 2 -1
v 2 3 -1
v 2 4 -1
v 2 5 -1
v 2 6 -1
v 3 0 -1
v 3 1 -1
v 3 6 -1
v 4 0 -1
v 4 1 -1
v -4 0 -0
v -3 0 -0
v -2 0 -0
v -1 0 -0
v 0 0 -0
v 1 0 -0
v 2 0 -0
v 3 0 -0
v 4 0 -0
v -4 0 -1
v -3 0 -1
v -2 0 -1
v -1 0 -1
v 0 0 -1
v 1 0 -1
v 2 0 -1
v 3 0 -1
v 4 0 -1
v -3 2 -0
v -2 2 -0
v 1 2 -0
v 2 2 -0
v -3 2 -1
v -2 2 -1
v 1 2 -1
v 2 2 -1
v -1 4 -0
v 0 4 -0
v 2 4 -0
v -1 4 -1
v 0 4 -1
v 2 4 -1
v 3 1 -0
v 4 1 -0
v 3 1 -1
v 4 1 -1
v -4 2 -0
v -3 2 -0
v -4 2 -1
v -3 2 -1
v 0 3 -0
v 2 3 -0
v 0 3 -1
v 2 3 -1
v -2 5 -0
v -1 5 -0
v 0 5 -0
v 2 5 -0
v -2 5 -1
v -1 5 -1
v 0 5 -1
v 2 5 -1
v 2 6 -0
v 3 6 -0
v 2 6 -1
v 3 6 -1
v -3 7 -0
v -2 7 -0
v -3 7 -1
v -2 7 -1

# faces
f 3/2/1 2/2/1 1/2/1
f 4/2/1 2/2/1 3/2/1
f 7/2/1 6/2/1 5/2/1
f 8/2/1 6/2/1 7/2/1
f 11/2/1 10/2/1 9/2/1
f 12/2/1 10/2/1 11/2/1
f 15/1/1 14/1/1 13/1/1
f 16/1/1 14/1/1 15/1/1
f 17/2/1 16/2/1 15/2/1
f 18/2/1 16/2/1 17/2/1
f 21/2/1 20/2/1 19/2/1
f 22/2/1 20/2/1 21/2/1
f 25/2/1 24/2/1 23/2/1
f 26/2/1 24/2/1 25/2/1
f 29/2/1 28/2/1 27/2/1
f 30/2/1 28/2/1 29/2/1
f 31/2/2 32/2/2 33/2/2
f 33/2/2 32/2/2 34/2/2
f 35/2/2 36/2/2 37/2/2
f 37/2/2 36/2/2 38/2/2
f 39/2/2 40/2/2 41/2/2
f 41/2/2 40/2/2 42/2/2
f 43/1/2 44/1/2 45/1/2
f 45/1/2 44/1/2 46/1/2
f 45/2/2 46/2/2 47/2/2
f 47/2/2 46/2/2 48/2/2
f 49/2/2 50/2/2 51/2/2
f 51/2/2 50/2/2 52/2/2
f 53/1/2 54/1/2 55/1/2
f 55/1/2 54/1/2 56/1/2
f 59/2/3 58/2/3 57/2/3
f 60/2/3 58/2/3 59/2/3
f 63/2/3 61/2/3 60/2/3
f 64/2/3 61/2/3 63/2/3
f 65/2/3 61/2/3 64/2/3
f 66/2/3 63/2/3 62/2/3
f 66/2/3 64/2/3 63/2/3
f 67/2/3 64/2/3 66/2/3
f 68/2/3 64/2/3 67/2/3
f 72/1/3 68/1/3 67/1/3
f 73/1/3 68/1/3 72/1/3
f 74/1/3 70/1/3 69/1/3
f 75/2/3 71/2/3 70/2/3
f 75/1/3 70/1/3 74/1/3
f 76/2/3 71/2/3 75/2/3
f 78/2/3 71/2/3 76/2/3
f 79/2/3 71/2/3 78/2/3
f 80/2/3 73/2/3 72/2/3
f 81/2/3 73/2/3 80/2/3
f 83/2/3 81/2/3 80/2/3
f 83/2/3 82/2/3 81/2/3
f 83/2/3 80/2/3 79/2/3
f 83/2/3 78/2/3 77/2/3
f 83/2/3 79/2/3 78/2/3
f 84/2/3 82/2/3 83/2/3
f 85/2/3 82/2/3 84/2/3
f 86/1/3 84/1/3 83/1/3
f 87/1/3 84/1/3 86/1/3
f 88/2/4 89/2/4 90/2/4
f 90/2/4 89/2/4 91/2/4
f 91/2/4 92/2/4 94/2/4
f 94/2/4 92/2/4 95/2/4
f 95/2/4 92/2/4 96/2/4
f 93/2/4 94/2/4 97/2/4
f 94/2/4 95/2/4 97/2/4
f 97/2/4 95/2/4 98/2/4
f 98/2/4 95/2/4 99/2/4
f 98/1/4 99/1/4 103/1/4
f 103/1/4 99/1/4 104/1/4
f 100/1/4 101/1/4 105/1/4
f 101/2/4 102/2/4 106/2/4
f 105/1/4 101/1/4 106/1/4
f 106/2/4 102/2/4 107/2/4
f 107/2/4 102/2/4 109/2/4
f 109/2/4 102/2/4 110/2/4
f 103/2/4 104/2/4 111/2/4
f 111/2/4 104/2/4 112/2/4
f 111/2/4 112/2/4 114/2/4
f 112/2/4 113/2/4 114/2/4
f 110/2/4 111/2/4 114/2/4
f 108/2/4 109/2/4 114/2/4
f 109/2/4 110/2/4 114/2/4
f 114/2/4 113/2/4 115/2/4
f 115/2/4 113/2/4 116/2/4
f 114/1/4 115/1/4 117/1/4
f 117/1/4 115/1/4 118/1/4
f 128/2/5 120/2/5 119/2/5
f 129/2/5 120/2/5 128/2/5
f 130/2/5 122/2/5 121/2/5
f 131/2/5 122/2/5 130/2/5
f 132/1/5 124/1/5 123/1/5
f 133/1/5 124/1/5 132/1/5
f 134/2/5 126/2/5 125/2/5
f 135/1/5 127/1/5 126/1/5
f 135/2/5 126/2/5 134/2/5
f 136/1/5 127/1/5 135/1/5
f 141/2/5 138/2/5 137/2/5
f 142/2/5 138/2/5 141/2/5
f 143/2/5 140/2/5 139/2/5
f 144/2/5 140/2/5 143/2/5
f 148/1/5 146/1/5 145/1/5
f 149/2/5 147/2/5 146/2/5
f 149/1/5 146/1/5 148/1/5
f 150/2/5 147/2/5 149/2/5
f 151/1/6 152/1/6 153/1/6
f 153/1/6 152/1/6 154/1/6
f 155/2/6 156/2/6 157/2/6
f 157/2/6 156/2/6 158/2/6
f 159/2/6 160/2/6 161/2/6
f 161/2/6 160/2/6 162/2/6
f 163/2/6 164/2/6 167/2/6
f 164/1/6 165/1/6 168/1/6
f 167/2/6 164/2/6 168/2/6
f 165/2/6 166/2/6 169/2/6
f 168/1/6 165/1/6 169/1/6
f 169/2/6 166/2/6 170/2/6
f 171/2/6 172/2/6 173/2/6
f 173/2/6 172/2/6 174/2/6
f 175/2/6 176/2/6 177/2/6
f 177/2/6 176/2/6 178/2/6
