# MagicaVoxel @ Ephtracy

# material
mtllib GermanTiger.mtl
usemtl palette

# normals
vn -1 0 0
vn 1 0 0
vn 0 0 1
vn 0 0 -1
vn 0 -1 0
vn 0 1 0

# texcoords
vt 0.904297 0.5
vt 0.982422 0.5
vt 0.990234 0.5

# verts
v -3 1 4
v -3 1 -3
v -3 2 4
v -3 2 -3
v -3 3 4
v -3 3 -3
v -2 3 3
v -2 3 -0
v -2 5 3
v -2 5 -0
v -1 4 -0
v -1 4 -5
v -1 5 -0
v -1 5 -5
v 0 4 -0
v 0 4 -5
v 0 5 -0
v 0 5 -5
v 1 3 3
v 1 3 -0
v 1 5 3
v 1 5 -0
v 2 1 4
v 2 1 -3
v 2 2 4
v 2 2 -3
v 2 3 4
v 2 3 -3
v -3 1 4
v -3 2 4
v -3 3 4
v -2 1 4
v -2 2 4
v 1 1 4
v 1 2 4
v 2 1 4
v 2 2 4
v 2 3 4
v -2 3 3
v -2 5 3
v 1 3 3
v 1 5 3
v -2 3 -0
v -2 5 -0
v -1 4 -0
v -1 5 -0
v 0 4 -0
v 0 5 -0
v 1 3 -0
v 1 5 -0
v -3 1 -3
v -3 2 -3
v -3 3 -3
v -2 1 -3
v -2 2 -3
v 1 1 -3
v 1 2 -3
v 2 1 -3
v 2 2 -3
v 2 3 -3
v -1 4 -5
v -1 5 -5
v 0 4 -5
v 0 5 -5
v -3 1 4
v -2 1 4
v 1 1 4
v 2 1 4
v -2 1 3
v 1 1 3
v -2 1 -2
v 1 1 -2
v -3 1 -3
v -2 1 -3
v 1 1 -3
v 2 1 -3
v -1 4 -0
v 0 4 -0
v -1 4 -5
v 0 4 -5
v -3 3 4
v 2 3 4
v -2 3 3
v 1 3 3
v -2 3 -0
v 1 3 -0
v -3 3 -3
v 2 3 -3
v -2 5 3
v 1 5 3
v -2 5 -0
v -1 5 -0
v 0 5 -0
v 1 5 -0
v -1 5 -5
v 0 5 -5

# faces
f 3/3/1 2/3/1 1/3/1
f 4/3/1 2/3/1 3/3/1
f 5/2/1 4/2/1 3/2/1
f 6/2/1 4/2/1 5/2/1
f 9/2/1 8/2/1 7/2/1
f 10/2/1 8/2/1 9/2/1
f 13/2/1 12/2/1 11/2/1
f 14/2/1 12/2/1 13/2/1
f 15/2/2 16/2/2 17/2/2
f 17/2/2 16/2/2 18/2/2
f 19/2/2 20/2/2 21/2/2
f 21/2/2 20/2/2 22/2/2
f 23/3/2 24/3/2 25/3/2
f 25/3/2 24/3/2 26/3/2
f 25/2/2 26/2/2 27/2/2
f 27/2/2 26/2/2 28/2/2
f 32/3/3 30/3/3 29/3/3
f 33/2/3 31/2/3 30/2/3
f 33/3/3 30/3/3 32/3/3
f 34/2/3 33/2/3 32/2/3
f 35/2/3 31/2/3 33/2/3
f 35/2/3 33/2/3 34/2/3
f 36/3/3 35/3/3 34/3/3
f 37/2/3 31/2/3 35/2/3
f 37/3/3 35/3/3 36/3/3
f 38/2/3 31/2/3 37/2/3
f 41/2/3 40/2/3 39/2/3
f 42/2/3 40/2/3 41/2/3
f 43/2/4 44/2/4 45/2/4
f 45/2/4 44/2/4 46/2/4
f 43/2/4 45/2/4 47/2/4
f 43/2/4 47/2/4 49/2/4
f 47/2/4 48/2/4 49/2/4
f 49/2/4 48/2/4 50/2/4
f 51/3/4 52/3/4 54/3/4
f 52/2/4 53/2/4 55/2/4
f 54/3/4 52/3/4 55/3/4
f 54/2/4 55/2/4 56/2/4
f 55/2/4 53/2/4 57/2/4
f 56/2/4 55/2/4 57/2/4
f 56/3/4 57/3/4 58/3/4
f 57/2/4 53/2/4 59/2/4
f 58/3/4 57/3/4 59/3/4
f 59/2/4 53/2/4 60/2/4
f 61/2/4 62/2/4 63/2/4
f 63/2/4 62/2/4 64/2/4
f 69/3/5 66/3/5 65/3/5
f 69/2/5 67/2/5 66/2/5
f 70/3/5 68/3/5 67/3/5
f 70/2/5 67/2/5 69/2/5
f 71/3/5 69/3/5 65/3/5
f 71/1/5 70/1/5 69/1/5
f 72/3/5 68/3/5 70/3/5
f 72/1/5 70/1/5 71/1/5
f 73/3/5 71/3/5 65/3/5
f 74/2/5 72/2/5 71/2/5
f 74/3/5 71/3/5 73/3/5
f 75/3/5 68/3/5 72/3/5
f 75/2/5 72/2/5 74/2/5
f 76/3/5 68/3/5 75/3/5
f 79/2/5 78/2/5 77/2/5
f 80/2/5 78/2/5 79/2/5
f 81/2/6 82/2/6 83/2/6
f 83/2/6 82/2/6 84/2/6
f 81/2/6 83/2/6 85/2/6
f 84/2/6 82/2/6 86/2/6
f 81/2/6 85/2/6 87/2/6
f 85/2/6 86/2/6 87/2/6
f 86/2/6 82/2/6 88/2/6
f 87/2/6 86/2/6 88/2/6
f 89/2/6 90/2/6 91/2/6
f 91/2/6 90/2/6 92/2/6
f 92/2/6 90/2/6 93/2/6
f 93/2/6 90/2/6 94/2/6
f 92/2/6 93/2/6 95/2/6
f 95/2/6 93/2/6 96/2/6
